<svg width="20" height="20" viewBox="0 0 20 20" fill="none" xmlns="http://www.w3.org/2000/svg">
<g id="speedometer-01" clip-path="url(#clip0_406_1508)">
<path id="Icon" d="M9.99984 1.66675V3.75008M9.99984 1.66675C5.39746 1.66675 1.6665 5.39771 1.6665 10.0001M9.99984 1.66675C14.6022 1.66675 18.3332 5.39771 18.3332 10.0001M9.99984 16.2501V18.3334M9.99984 18.3334C14.6022 18.3334 18.3332 14.6025 18.3332 10.0001M9.99984 18.3334C5.39746 18.3334 1.6665 14.6025 1.6665 10.0001M3.74984 10.0001H1.6665M18.3332 10.0001H16.2498M15.8985 15.8988L14.4204 14.4207M4.1012 15.8988L5.5808 14.4192M4.1012 4.16675L5.54824 5.61379M15.8985 4.16675L11.2498 8.75008M11.6665 10.0001C11.6665 10.9206 10.9203 11.6667 9.99984 11.6667C9.07936 11.6667 8.33317 10.9206 8.33317 10.0001C8.33317 9.07961 9.07936 8.33342 9.99984 8.33342C10.9203 8.33342 11.6665 9.07961 11.6665 10.0001Z" stroke="black" stroke-width="1.5" stroke-linecap="round" stroke-linejoin="round"/>
</g>
<defs>
<clipPath id="clip0_406_1508">
<rect width="20" height="20" fill="white"/>
</clipPath>
</defs>
</svg>
