<svg width="21" height="20" viewBox="0 0 21 20" fill="none" xmlns="http://www.w3.org/2000/svg">
<g id="users-01">
<path id="Icon" d="M18.6669 17.5V15.8333C18.6669 14.2801 17.6046 12.9751 16.1669 12.605M13.2502 2.7423C14.4718 3.23679 15.3336 4.43443 15.3336 5.83333C15.3336 7.23224 14.4718 8.42988 13.2502 8.92437M14.5002 17.5C14.5002 15.9469 14.5002 15.1703 14.2465 14.5577C13.9082 13.741 13.2593 13.092 12.4425 12.7537C11.83 12.5 11.0534 12.5 9.50024 12.5H7.00024C5.44711 12.5 4.67054 12.5 4.05797 12.7537C3.24121 13.092 2.59229 13.741 2.25398 14.5577C2.00024 15.1703 2.00024 15.9469 2.00024 17.5M11.5836 5.83333C11.5836 7.67428 10.0912 9.16667 8.25024 9.16667C6.4093 9.16667 4.91691 7.67428 4.91691 5.83333C4.91691 3.99238 6.4093 2.5 8.25024 2.5C10.0912 2.5 11.5836 3.99238 11.5836 5.83333Z" stroke="black" stroke-width="1.5" stroke-linecap="round" stroke-linejoin="round"/>
</g>
</svg>
